<svg width="15" height="16" viewBox="0 0 15 16" fill="none" xmlns="http://www.w3.org/2000/svg">
<path d="M13.8399 2.08C12.8799 0.43 8.53995 0.08 8.04995 0.035L7.49995 0V10.145C7.37266 10.0425 7.23721 9.95048 7.09495 9.87C6.59274 9.61723 6.04455 9.46875 5.48342 9.43352C4.92228 9.39829 4.35983 9.47703 3.82995 9.665C1.76995 10.33 0.444946 12.23 0.874946 13.9C0.97078 14.2532 1.13833 14.5828 1.36715 14.8684C1.59597 15.154 1.88116 15.3894 2.20495 15.56C2.76018 15.8557 3.3809 16.0071 4.00995 16C4.51623 15.9999 5.01924 15.9189 5.49995 15.76C7.34995 15.165 8.59995 13.575 8.52995 12.05V3.245C9.02995 3.305 9.71495 3.41 10.4399 3.565C11.1575 3.67447 11.847 3.9224 12.4699 4.295C12.9699 4.625 12.6599 5.245 12.6349 5.295C12.3959 5.65788 12.1176 5.99325 11.8049 6.295C11.714 6.38518 11.6611 6.50681 11.6572 6.63482C11.6533 6.76283 11.6987 6.88745 11.784 6.983C11.8693 7.07854 11.988 7.13772 12.1156 7.14832C12.2432 7.15893 12.3701 7.12016 12.4699 7.04C12.5749 6.925 15.2499 4.5 13.8399 2.08Z" fill="#3F1D1D"/>
</svg>
